<?xml version="1.0" encoding="utf-8"?>
<!-- Generator: Adobe Illustrator 16.0.0, SVG Export Plug-In . SVG Version: 6.00 Build 0)  -->
<!DOCTYPE svg PUBLIC "-//W3C//DTD SVG 1.1//EN" "http://www.w3.org/Graphics/SVG/1.1/DTD/svg11.dtd">
<svg version="1.1" id="Calque_1" xmlns="http://www.w3.org/2000/svg" xmlns:xlink="http://www.w3.org/1999/xlink" x="0px" y="0px"
width="300px" height="110px" viewBox="0 0 955 450" xml:space="preserve">
<rect x="632.729" y="210.995" fill="#FFFFFF" width="47.674" height="8.918"/>
<g>
	<g>
		<polygon fill="#FFFFFF" points="507.44,184.728 516.033,184.728 524.602,178.404 511.587,179.236 		"/>
	</g>
	<g>
		<path fill="#FFFFFF" d="M476.707,1.258l4.78,7.338l-40.709,26.496l-4.775-7.338L476.707,1.258z"/>
		<path fill="#FFFFFF" d="M489.721,22.171l4.297,7.63L451.705,53.65l-4.303-7.63L489.721,22.171z"/>
		<path fill="#FFFFFF" d="M501.331,43.796l3.807,7.885L461.39,72.791l-3.805-7.884L501.331,43.796z"/>
		<path fill="#FFFFFF" d="M511.545,66.117l3.303,8.112l-45.001,18.291l-3.297-8.109L511.545,66.117z"/>
		<path fill="#FFFFFF" d="M520.348,89.117l2.775,8.307l-46.075,15.382l-2.768-8.307L520.348,89.117z"/>
		<path fill="#FFFFFF" d="M527.638,112.526l2.234,8.466l-46.956,12.42l-2.235-8.462L527.638,112.526z"/>
		<path fill="#FFFFFF" d="M533.43,136.402l1.688,8.59l-47.651,9.391l-1.695-8.59L533.43,136.402z"/>
		<path fill="#FFFFFF" d="M537.676,160.595l1.137,8.683l-48.16,6.314l-1.137-8.682L537.676,160.595z"/>
		<path fill="#FFFFFF" d="M538.956,258.456l-1.112,8.683l-48.18-6.171l1.113-8.689L538.956,258.456z"/>
		<path fill="#FFFFFF" d="M535.323,282.754l-1.663,8.596l-47.684-9.258l1.671-8.599L535.323,282.754z"/>
		<path fill="#FFFFFF" d="M530.146,306.769l-2.211,8.473l-46.993-12.284l2.211-8.471L530.146,306.769z"/>
		<path fill="#FFFFFF" d="M523.439,330.442l-2.75,8.317l-46.118-15.23l2.745-8.312L523.439,330.442z"/>
		<path fill="#FFFFFF" d="M515.245,353.674l-3.261,8.127l-45.075-18.1l3.259-8.127L515.245,353.674z"/>
		<path fill="#FFFFFF" d="M505.646,376.242l-3.775,7.902l-43.834-20.916l3.77-7.903L505.646,376.242z"/>
		<path fill="#FFFFFF" d="M494.606,398.202l-4.271,7.646l-42.406-23.687l4.271-7.646L494.606,398.202z"/>
		<path fill="#FFFFFF" d="M482.202,419.367l-4.756,7.357l-40.792-26.362l4.75-7.356L482.202,419.367z"/>
	</g>
	<g>
		<g>
			<rect x="491.81" y="232.839" fill="#FFFFFF" width="47.671" height="8.919"/>
		</g>
	</g>
	<g>
		<g>
			<rect x="236.188" y="188.771" fill="#FFFFFF" width="47.676" height="8.918"/>
			<g>
				<rect x="236.188" y="210.992" fill="#FFFFFF" width="47.676" height="8.921"/>
				<rect x="236.188" y="210.992" fill="#FFFFFF" width="47.676" height="8.921"/>
			</g>
			<rect x="236.188" y="233.106" fill="#FFFFFF" width="47.676" height="8.916"/>
		</g>
	</g>
	<g>
		<g>
			<rect x="491.812" y="188.771" fill="#FFFFFF" width="47.671" height="8.918"/>
			<g>
				<rect x="491.812" y="210.992" fill="#FFFFFF" width="47.671" height="8.921"/>
				<rect x="491.812" y="210.992" fill="#FFFFFF" width="47.671" height="8.921"/>
			</g>
		</g>
	</g>
	<rect x="632.459" y="232.839" fill="#FFFFFF" width="47.676" height="8.919"/>
	<g>
		<g>
			<rect x="632.627" y="188.771" fill="#FFFFFF" width="47.676" height="8.918"/>
		</g>
	</g>
	<g>
		<path fill="#FFFFFF" d="M74.116,212.257c0,22.317-14.212,31.472-36.812,31.472c-22.605,0-36.811-9.155-36.811-31.472V172.68
			h13.541v38.625c0,11.446,4.098,20.79,23.27,20.79c19.167,0,23.265-9.344,23.265-20.79V172.68h13.547V212.257z"/>
		<path fill="#FFFFFF" d="M85.36,188.86h10.964l35.532,38.382V188.86h9.947v53.153h-9.505L95.3,202.24v39.773H85.36V188.86z"/>
		<path fill="#FFFFFF" d="M152.551,188.86h10.381v53.153h-10.381V188.86z"/>
		<path fill="#FFFFFF" d="M168.631,188.86h11.114l19.961,42.405l20.327-42.405h11.114l-26.028,53.153h-10.821L168.631,188.86z"/>
		<path fill="#FFFFFF" d="M290.589,188.86h31.95c12.573,0,21.644,2.85,21.644,15.863c0,9.797-7.022,15.208-14.845,15.649
			l16.304,21.641h-12.797l-15.428-20.911H300.97v20.911h-10.381V188.86z M320.999,212.475c8.487,0,12.795-1.245,12.795-7.531
			c0-6.215-4.309-7.457-12.795-7.457H300.97v14.988H320.999z"/>
		<path fill="#FFFFFF" d="M394.479,205.018c-1.683-4.753-5.991-8.847-18.645-8.847c-7.016,0-14.112,1.753-14.112,6.652
			c0,2.267,1.316,4.679,11.92,5.994l12.572,1.903c11.92,1.826,18.937,6.433,18.937,15.354c0,12.576-11.989,17.253-26.17,17.253
			c-22.817,0-28.374-11.259-29.615-15.279l10.021-3.145c1.899,3.874,5.848,9.505,19.886,9.505c8.481,0,15.497-2.778,15.497-7.385
			c0-3.438-3.948-5.703-11.548-6.653l-12.721-1.757c-12.288-1.679-19.161-7.019-19.161-15.134c0-15.938,20.694-15.938,24.785-15.938
			c22.885,0,26.834,10.602,28.15,14.255L394.479,205.018z"/>
		<path fill="#FFFFFF" d="M412.174,188.86h10.38v53.153h-10.38V188.86z"/>
		<path fill="#FFFFFF" d="M452.239,197.778h-23.761v-8.918h57.902v8.918h-23.76v44.234h-10.38V197.778z"/>
		<path fill="#FFFFFF" d="M569.949,188.86h25.592c16.814,0,30.269,7.09,30.269,26.248c0,18.132-12.281,26.905-29.833,26.905h-26.027
			V188.86z M590.861,233.094c17.694,0,24.567-5.411,24.567-17.84c0-13.014-7.166-17.475-24.567-17.475H580.33v35.315H590.861z"/>
		<path fill="#FFFFFF" d="M712.682,172.68h13.541v57.316h50.26v12.017h-63.801V172.68z"/>
		<path fill="#FFFFFF" d="M791.638,220.735l-25.952-31.875h12.723l18.42,22.519l18.354-22.519h12.797l-25.96,31.875v21.278h-10.381
			V220.735z"/>
		<path fill="#FFFFFF" d="M857.301,187.543c23.394,0,31.659,13.743,31.659,28.293c0,11.042-6.508,27.492-31.659,27.492
			c-25.152,0-31.657-16.45-31.657-27.492C825.644,201.287,833.9,187.543,857.301,187.543z M878.572,215.253
			c0-12.796-9.14-18.791-21.271-18.791c-12.138,0-21.278,5.995-21.278,18.791c0,15.062,11.332,19.156,21.278,19.156
			C867.241,234.41,878.572,230.315,878.572,215.253z"/>
		<path fill="#FFFFFF" d="M895.608,188.86h10.966l35.537,38.382V188.86h9.94v53.153h-9.506l-36.991-39.773v39.773h-9.946V188.86z"/>
	</g>
</g>
</svg>
